<?xml version="1.0" ?><svg id="Layer_1" fill="#928f95" style="enable-background:new 1 -1 100 100;" version="1.1" viewBox="1 -1 100 100" xml:space="preserve" xmlns="http://www.w3.org/2000/svg" xmlns:xlink="http://www.w3.org/1999/xlink"><title/><g><path d="M86,25h-9.6l-5.3-8c-2-3-5.5-4.8-9.1-4.8H40c-3.6,0-7.1,1.8-9.1,4.8l-5.3,8H16C9.9,25,5,29.9,5,36v38.8c0,6.1,4.9,11,11,11   h70c6.1,0,11-4.9,11-11V36C97,29.9,92.1,25,86,25z M51,76.8c-13.7,0-24.8-11.1-24.8-24.8S37.3,27.3,51,27.3s24.8,11.1,24.8,24.8   C75.8,65.7,64.7,76.8,51,76.8z M84.6,40.5c-0.1,0-0.2,0-0.4,0h-4c-1.8-0.1-3.2-1.6-3.1-3.4c0.1-1.7,1.4-3,3.1-3.1h4   c1.8-0.1,3.3,1.3,3.4,3.1S86.4,40.4,84.6,40.5z"/><path d="M51,38.3c-7.6,0-13.8,6.2-13.8,13.8S43.4,65.8,51,65.8s13.8-6.2,13.8-13.8C64.8,44.4,58.6,38.3,51,38.3z"/></g></svg>
